<?xml version="1.0" encoding="UTF-8" standalone="no"?>
<svg
   xmlns:dc="http://purl.org/dc/elements/1.1/"
   xmlns:cc="http://creativecommons.org/ns#"
   xmlns:rdf="http://www.w3.org/1999/02/22-rdf-syntax-ns#"
   xmlns:svg="http://www.w3.org/2000/svg"
   xmlns="http://www.w3.org/2000/svg"
   xmlns:sodipodi="http://sodipodi.sourceforge.net/DTD/sodipodi-0.dtd"
   xmlns:inkscape="http://www.inkscape.org/namespaces/inkscape"
   width="50"
   height="50"
   viewBox="0 0 13.229167 13.229167"
   version="1.1"
   id="svg8"
   inkscape:version="1.0.2-2 (e86c870879, 2021-01-15)"
   sodipodi:docname="facebook-white.svg">
  <defs
     id="defs2" />
  <sodipodi:namedview
     id="base"
     pagecolor="#ffffff"
     bordercolor="#666666"
     borderopacity="1.0"
     inkscape:pageopacity="0.0"
     inkscape:pageshadow="2"
     inkscape:zoom="7.9195959"
     inkscape:cx="21.168407"
     inkscape:cy="33.374002"
     inkscape:document-units="mm"
     inkscape:current-layer="layer1"
     inkscape:document-rotation="0"
     showgrid="false"
     units="px"
     inkscape:window-width="1920"
     inkscape:window-height="1017"
     inkscape:window-x="-8"
     inkscape:window-y="-8"
     inkscape:window-maximized="1" />
  <metadata
     id="metadata5">
    <rdf:RDF>
      <cc:Work
         rdf:about="">
        <dc:format>image/svg+xml</dc:format>
        <dc:type
           rdf:resource="http://purl.org/dc/dcmitype/StillImage" />
        <dc:title></dc:title>
      </cc:Work>
    </rdf:RDF>
  </metadata>
  <g
     inkscape:label="Layer 1"
     inkscape:groupmode="layer"
     id="layer1">
    <g
       id="g68"
       transform="matrix(0.06944722,0,0,0.06944722,3.206016,3.3694951)"
       style="fill:#ffffff">
      <g
         id="g12"
         style="fill:#ffffff">
	<path
   d="M 72.089,0.02 59.624,0 C 45.62,0 36.57,9.285 36.57,23.656 V 34.563 H 24.037 c -1.083,0 -1.96,0.878 -1.96,1.961 v 15.803 c 0,1.083 0.878,1.96 1.96,1.96 H 36.57 v 39.876 c 0,1.083 0.877,1.96 1.96,1.96 h 16.352 c 1.083,0 1.96,-0.878 1.96,-1.96 V 54.287 h 14.654 c 1.083,0 1.96,-0.877 1.96,-1.96 l 0.006,-15.803 c 0,-0.52 -0.207,-1.018 -0.574,-1.386 -0.367,-0.368 -0.867,-0.575 -1.387,-0.575 H 56.842 v -9.246 c 0,-4.444 1.059,-6.7 6.848,-6.7 l 8.397,-0.003 c 1.082,0 1.959,-0.878 1.959,-1.96 V 1.98 c 0,-1.081 -0.876,-1.958 -1.957,-1.96 z"
   id="path10"
   style="fill:#ffffff" />

</g>
      <g
         id="g14"
         style="fill:#ffffff">
</g>
      <g
         id="g16"
         style="fill:#ffffff">
</g>
      <g
         id="g18"
         style="fill:#ffffff">
</g>
      <g
         id="g20"
         style="fill:#ffffff">
</g>
      <g
         id="g22"
         style="fill:#ffffff">
</g>
      <g
         id="g24"
         style="fill:#ffffff">
</g>
      <g
         id="g26"
         style="fill:#ffffff">
</g>
      <g
         id="g28"
         style="fill:#ffffff">
</g>
      <g
         id="g30"
         style="fill:#ffffff">
</g>
      <g
         id="g32"
         style="fill:#ffffff">
</g>
      <g
         id="g34"
         style="fill:#ffffff">
</g>
      <g
         id="g36"
         style="fill:#ffffff">
</g>
      <g
         id="g38"
         style="fill:#ffffff">
</g>
      <g
         id="g40"
         style="fill:#ffffff">
</g>
      <g
         id="g42"
         style="fill:#ffffff">
</g>
    </g>
    <ellipse
       style="fill:none;fill-rule:evenodd;stroke:#ffffff;stroke-width:0.52916667"
       id="path74"
       cx="6.638207"
       cy="6.5909595"
       rx="5.818511"
       ry="5.8422647" />
  </g>
</svg>
