<?xml version="1.0" encoding="UTF-8" standalone="no"?>
<svg
   xmlns:dc="http://purl.org/dc/elements/1.1/"
   xmlns:cc="http://creativecommons.org/ns#"
   xmlns:rdf="http://www.w3.org/1999/02/22-rdf-syntax-ns#"
   xmlns:svg="http://www.w3.org/2000/svg"
   xmlns="http://www.w3.org/2000/svg"
   xmlns:sodipodi="http://sodipodi.sourceforge.net/DTD/sodipodi-0.dtd"
   xmlns:inkscape="http://www.inkscape.org/namespaces/inkscape"
   width="50"
   height="50"
   viewBox="0 0 13.229167 13.229167"
   version="1.1"
   id="svg8"
   inkscape:version="1.0.2-2 (e86c870879, 2021-01-15)"
   sodipodi:docname="instagram-white.svg">
  <defs
     id="defs2" />
  <sodipodi:namedview
     id="base"
     pagecolor="#ffffff"
     bordercolor="#666666"
     borderopacity="1.0"
     inkscape:pageopacity="0.0"
     inkscape:pageshadow="2"
     inkscape:zoom="7.9195959"
     inkscape:cx="21.168407"
     inkscape:cy="28.32324"
     inkscape:document-units="mm"
     inkscape:current-layer="layer1"
     inkscape:document-rotation="0"
     showgrid="false"
     units="px"
     inkscape:window-width="1920"
     inkscape:window-height="1017"
     inkscape:window-x="-8"
     inkscape:window-y="-8"
     inkscape:window-maximized="1" />
  <metadata
     id="metadata5">
    <rdf:RDF>
      <cc:Work
         rdf:about="">
        <dc:format>image/svg+xml</dc:format>
        <dc:type
           rdf:resource="http://purl.org/dc/dcmitype/StillImage" />
        <dc:title></dc:title>
      </cc:Work>
    </rdf:RDF>
  </metadata>
  <g
     inkscape:label="Layer 1"
     inkscape:groupmode="layer"
     id="layer1">
    <ellipse
       style="fill:none;fill-rule:evenodd;stroke:#ffffff;stroke-width:0.52916667;stroke-opacity:1"
       id="path74"
       cx="6.638207"
       cy="6.5909595"
       rx="5.818511"
       ry="5.8422647" />
    <path
       d="m 6.6817385,4.1792576 c 0.847725,0 0.948267,0.0032 1.283229,0.01852 0.860425,0.03916 1.262327,0.447411 1.301485,1.301486 0.01535,0.334698 0.01826,0.435239 0.01826,1.282964 0,0.8479904 -0.0032,0.9482674 -0.01826,1.2829654 -0.03942,0.853281 -0.440266,1.262327 -1.301485,1.301485 -0.334962,0.01535 -0.434975,0.01852 -1.283229,0.01852 -0.847725,0 -0.948267,-0.0032 -1.282965,-0.01852 -0.862541,-0.03942 -1.262327,-0.449527 -1.301485,-1.30175 -0.01535,-0.334698 -0.01852,-0.434975 -0.01852,-1.2829644 0,-0.847725 0.0034,-0.948002 0.01852,-1.282965 0.03942,-0.85381 0.440267,-1.262327 1.301485,-1.301485 0.334963,-0.01508 0.43524,-0.01826 1.282965,-0.01826 z m 0,-0.572293 c -0.862277,0 -0.970227,0.0037 -1.308894,0.01905 -1.153054,0.05292 -1.793875,0.692679 -1.846792,1.846791 -0.01561,0.338932 -0.01931,0.446882 -0.01931,1.309159 0,0.8622774 0.0037,0.9704914 0.01905,1.3091584 0.05292,1.153054 0.692679,1.793875 1.846792,1.846792 0.338931,0.01534 0.446881,0.01905 1.309158,0.01905 0.862277,0 0.970492,-0.0037 1.309158,-0.01905 1.151996,-0.05292 1.794404,-0.69268 1.846527,-1.846792 0.01561,-0.338667 0.01931,-0.446881 0.01931,-1.3091584 0,-0.862277 -0.0037,-0.970227 -0.01905,-1.308894 -0.05186,-1.151996 -0.692415,-1.793875 -1.846527,-1.846792 -0.338931,-0.01561 -0.447146,-0.01931 -1.309423,-0.01931 z m 0,1.544637 c -0.900377,0 -1.630363,0.729986 -1.630363,1.630363 0,0.9003774 0.729986,1.6306274 1.630363,1.6306274 0.900377,0 1.630362,-0.729986 1.630362,-1.6306274 0,-0.900377 -0.729985,-1.630363 -1.630362,-1.630363 z m 0,2.6886964 c -0.584465,0 -1.058333,-0.473604 -1.058333,-1.0583334 0,-0.584465 0.473868,-1.058334 1.058333,-1.058334 0.584464,0 1.058333,0.473869 1.058333,1.058334 0,0.5847294 -0.473869,1.0583334 -1.058333,1.0583334 z m 1.694921,-3.1339904 c -0.210609,0 -0.381265,0.170657 -0.381265,0.381 0,0.210344 0.170656,0.381 0.381265,0.381 0.210343,0 0.380735,-0.170656 0.380735,-0.381 0,-0.210343 -0.170392,-0.381 -0.380735,-0.381 z"
       id="path899"
       style="fill:#ffffff;fill-opacity:1;stroke-width:0.264583" />
  </g>
</svg>
