<?xml version="1.0" encoding="UTF-8" standalone="no"?>
<svg
   xmlns:dc="http://purl.org/dc/elements/1.1/"
   xmlns:cc="http://creativecommons.org/ns#"
   xmlns:rdf="http://www.w3.org/1999/02/22-rdf-syntax-ns#"
   xmlns:svg="http://www.w3.org/2000/svg"
   xmlns="http://www.w3.org/2000/svg"
   xmlns:sodipodi="http://sodipodi.sourceforge.net/DTD/sodipodi-0.dtd"
   xmlns:inkscape="http://www.inkscape.org/namespaces/inkscape"
   width="50"
   height="50"
   viewBox="0 0 13.229167 13.229167"
   version="1.1"
   id="svg8"
   inkscape:version="1.0.2-2 (e86c870879, 2021-01-15)"
   sodipodi:docname="twitter-white.svg">
  <defs
     id="defs2" />
  <sodipodi:namedview
     id="base"
     pagecolor="#ffffff"
     bordercolor="#666666"
     borderopacity="1.0"
     inkscape:pageopacity="0.0"
     inkscape:pageshadow="2"
     inkscape:zoom="7.9195959"
     inkscape:cx="23.637112"
     inkscape:cy="22.915323"
     inkscape:document-units="mm"
     inkscape:current-layer="layer1"
     inkscape:document-rotation="0"
     showgrid="false"
     units="px"
     inkscape:window-width="1920"
     inkscape:window-height="1017"
     inkscape:window-x="-8"
     inkscape:window-y="-8"
     inkscape:window-maximized="1" />
  <metadata
     id="metadata5">
    <rdf:RDF>
      <cc:Work
         rdf:about="">
        <dc:format>image/svg+xml</dc:format>
        <dc:type
           rdf:resource="http://purl.org/dc/dcmitype/StillImage" />
        <dc:title></dc:title>
      </cc:Work>
    </rdf:RDF>
  </metadata>
  <g
     inkscape:label="Layer 1"
     inkscape:groupmode="layer"
     id="layer1">
    <ellipse
       style="fill:none;fill-rule:evenodd;stroke:#ffffff;stroke-width:0.52916667;stroke-opacity:1"
       id="path74"
       cx="6.638207"
       cy="6.5909595"
       rx="5.818511"
       ry="5.8422647" />
    <path
       d="M 9.8368303,5.0232655 C 9.6032032,5.1269825 9.3521136,5.1968325 9.0885886,5.2283175 9.3576699,5.0671865 9.5643095,4.8118635 9.6614115,4.5075925 9.4097928,4.6568175 9.130922,4.7652975 8.8340595,4.8237695 8.5967282,4.5705635 8.257797,4.4123425 7.883147,4.4123425 c -0.8411105,0 -1.4591771,0.784755 -1.2692063,1.599407 -1.0824104,-0.05424 -2.0423187,-0.572823 -2.6849916,-1.361017 -0.3413125,0.585523 -0.1770063,1.351492 0.4029604,1.739371 -0.2132542,-0.0069 -0.4143375,-0.06535 -0.5897562,-0.162984 -0.014287,0.603515 0.4183062,1.168136 1.0448395,1.293813 -0.1833563,0.04974 -0.384175,0.06138 -0.5884333,0.02222 0.1656292,0.517525 0.6466416,0.894027 1.2170833,0.90461 -0.5476875,0.429419 -1.2377208,0.621242 -1.9288125,0.53975 0.5765271,0.369623 1.2615333,0.585259 1.997075,0.585259 2.4188208,0 3.7853937,-2.042848 3.7028437,-3.875088 0.2545292,-0.183885 0.4754563,-0.413279 0.6500813,-0.674423 z"
       id="path923"
       style="fill:#ffffff;fill-opacity:1;stroke-width:0.264583" />
  </g>
</svg>
